<svg width="152" height="89" viewBox="0 0 152 89" fill="none" xmlns="http://www.w3.org/2000/svg">
<path d="M108.001 88C132.301 88 152.001 68.3005 152.001 44C152.001 19.6995 132.301 0 108.001 0C87.6789 0 68.5008 19 47.0008 35.5C44.5 33.5 3.99934 3 1 0.5C1 5 0.5 75 0.5 88.5H18C18 83.8202 18.5 43.5 18.5 35C25.744 40.433 39 50.5 47.0008 56.5C55 50.5 63.5 43.8749 63.5 44C73 36.5 95.8402 17 107.5 17C122.688 17 135 29.3122 135 44.5C135 59.6879 122.688 72 107.5 72C92.3123 72 78.5 57.5 79 42C76.8343 43.4439 67.5003 50 64.5003 54C69.6711 72.7233 87.6789 88 108.001 88Z" fill="black"/>
</svg>
